<svg preserveAspectRatio="xMidYMid meet" data-bbox="25.45 15.24 286.26 171.41" viewBox="25.45 15.24 286.26 171.41" xmlns="http://www.w3.org/2000/svg" data-type="color" role="img">
    <g>
        <path d="M95.51 146.49V65.11c0-2.23.81-4.13 2.44-5.71 1.62-1.58 3.55-2.37 5.78-2.37 1.48 0 3.04.37 4.67 1.11 1.62.74 2.81 1.77 3.55 3.07 4.55-2.79 9.47-4.18 14.77-4.18 4.27 0 8.34.81 12.19 2.44 3.85 1.63 7.2 3.88 10.03 6.76 2.83 2.88 5.09 6.22 6.76 10.03 1.67 3.81 2.51 7.9 2.51 12.26 0 4.37-.84 8.43-2.51 12.19a33.49 33.49 0 0 1-6.76 9.96c-2.83 2.88-6.18 5.13-10.03 6.76-3.86 1.63-7.92 2.44-12.19 2.44-5.11 0-10.03-1.3-14.77-3.9v30.51c0 2.13-.84 4.02-2.51 5.64s-3.62 2.44-5.85 2.44c-2.14 0-4.02-.81-5.64-2.44-1.63-1.61-2.44-3.49-2.44-5.63zm13.79-58.1c0 3.62 1 6.87 3 9.75s4.48 4.97 7.46 6.27c1.3.56 2.76 1.65 4.39 3.27 1.62 1.63 2.48 3.97 2.58 7.04.09-3.07.93-5.41 2.51-7.04 1.58-1.62 3.02-2.72 4.32-3.27 3.07-1.3 5.6-3.39 7.59-6.27 2-2.88 3-6.13 3-9.75 0-2.41-.44-4.69-1.32-6.83-.88-2.14-2.11-3.99-3.69-5.57s-3.44-2.81-5.57-3.69c-2.14-.88-4.41-1.32-6.83-1.32s-4.69.44-6.83 1.32c-2.14.88-3.99 2.11-5.57 3.69s-2.81 3.44-3.69 5.57c-.91 2.14-1.35 4.42-1.35 6.83z" fill="#8c734b" data-color="1"></path>
        <path d="M72.8 115.42c-2.23 1.39-4.76 2.46-7.59 3.2-2.83.74-5.6 1.11-8.29 1.11-4.37 0-8.43-.81-12.19-2.44a31.718 31.718 0 0 1-9.96-6.76c-2.88-2.88-5.13-6.2-6.76-9.96-1.63-3.76-2.44-7.82-2.44-12.19 0-4.27.81-8.31 2.44-12.12 1.62-3.81 3.88-7.15 6.76-10.03 2.88-2.88 6.2-5.13 9.96-6.76 3.76-1.63 7.82-2.44 12.19-2.44 2.69 0 5.46.37 8.29 1.11 2.83.74 5.36 1.81 7.59 3.2a8.74 8.74 0 0 1 3-3.13c1.25-.79 2.67-1.19 4.25-1.19 2.32 0 4.27.77 5.85 2.3 1.58 1.53 2.37 3.46 2.37 5.78v46.68c0 2.32-.79 4.23-2.37 5.71-1.58 1.49-3.53 2.23-5.85 2.23-1.58 0-3-.39-4.25-1.18a8.553 8.553 0 0 1-3-3.12zM39.5 88.39c0 3.62 1 6.87 3 9.75s4.48 4.97 7.46 6.27c1.3.56 2.76 1.65 4.39 3.27 1.62 1.63 2.48 3.97 2.58 7.04.09-3.07.93-5.41 2.51-7.04 1.58-1.62 3.02-2.72 4.32-3.27 3.07-1.3 5.6-3.39 7.59-6.27 2-2.88 3-6.13 3-9.75 0-2.41-.44-4.69-1.32-6.83-.88-2.14-2.11-3.99-3.69-5.57s-3.44-2.81-5.57-3.69c-2.14-.88-4.41-1.32-6.83-1.32s-4.69.44-6.83 1.32c-2.14.88-3.99 2.11-5.57 3.69s-2.81 3.44-3.69 5.57c-.91 2.14-1.35 4.42-1.35 6.83z" fill="#8c734b" data-color="1"></path>
        <path d="M189 23.6c0-2.14.81-4.02 2.44-5.64 1.62-1.62 3.51-2.44 5.64-2.44 2.23 0 4.18.82 5.85 2.44 1.67 1.63 2.51 3.51 2.51 5.64v37.2c4.74-2.6 9.66-3.9 14.77-3.9 4.27 0 8.34.81 12.19 2.44 3.85 1.63 7.2 3.88 10.03 6.76 2.83 2.88 5.09 6.22 6.76 10.03 1.67 3.81 2.51 7.85 2.51 12.12 0 4.37-.84 8.45-2.51 12.26-1.67 3.81-3.93 7.15-6.76 10.03-2.83 2.88-6.18 5.13-10.03 6.76-3.86 1.63-7.92 2.44-12.19 2.44-5.3 0-10.22-1.39-14.77-4.18-.74 1.3-1.93 2.32-3.55 3.07-1.63.74-3.18 1.11-4.67 1.11-2.23 0-4.16-.79-5.78-2.37-1.63-1.58-2.44-3.48-2.44-5.71V23.6zm48.77 64.65c0-2.41-.47-4.67-1.39-6.76-.93-2.09-2.18-3.92-3.76-5.5-1.58-1.58-3.44-2.83-5.57-3.76-2.14-.93-4.41-1.39-6.83-1.39s-4.67.47-6.76 1.39c-2.09.93-3.93 2.18-5.5 3.76a18.101 18.101 0 0 0-3.76 5.5c-.93 2.09-1.39 4.34-1.39 6.76 0 3.62 1 6.88 3 9.75 2 2.88 4.48 4.97 7.46 6.27.65.28 1.37.7 2.16 1.25.79.56 1.53 1.25 2.23 2.09s1.3 1.86 1.81 3.07c.51 1.21.77 2.56.77 4.04.18-3.07 1.07-5.43 2.65-7.11 1.58-1.67 3.02-2.79 4.32-3.34 3.07-1.3 5.59-3.39 7.59-6.27 1.97-2.87 2.97-6.13 2.97-9.75z" fill="#8c734b" data-color="1"></path>
        <path d="M299.63 75.85a18.101 18.101 0 0 0-5.5-3.76c-2.09-.93-4.39-1.39-6.9-1.39-2.51 0-4.83.47-6.97 1.39-2.14.93-4 2.21-5.57 3.83a17.778 17.778 0 0 0-3.69 5.64c-.88 2.14-1.32 4.41-1.32 6.83 0 3.62 1.02 6.87 3.07 9.75 2.04 2.88 4.55 4.97 7.52 6.27 1.58.74 3.11 1.9 4.6 3.48 1.49 1.58 2.28 3.9 2.37 6.97 0-1.58.25-2.97.77-4.18.51-1.21 1.11-2.23 1.81-3.07s1.44-1.51 2.23-2.02 1.51-.91 2.16-1.19c2.23-.93 4.13-2.23 5.71-3.9 1.3-1.3 2.88-1.95 4.74-1.95 1.86 0 3.48.7 4.88 2.09 1.39 1.39 2.09 3.02 2.09 4.88 0 1.86-.65 3.44-1.95 4.74-2.88 2.97-6.22 5.3-10.03 6.97-3.81 1.67-7.94 2.51-12.4 2.51-4.37 0-8.43-.81-12.19-2.44a31.718 31.718 0 0 1-9.96-6.76c-2.88-2.88-5.13-6.2-6.76-9.96-1.63-3.76-2.44-7.82-2.44-12.19 0-4.27.81-8.31 2.44-12.12 1.62-3.81 3.88-7.15 6.76-10.03 2.88-2.88 6.2-5.13 9.96-6.76s7.82-2.44 12.19-2.44c4.37 0 8.45.84 12.26 2.51 3.81 1.67 7.15 3.95 10.03 6.83 1.39 1.39 2.09 3.02 2.09 4.88 0 1.86-.7 3.46-2.09 4.81-1.39 1.35-3.02 2.02-4.88 2.02-2.06-.01-3.73-.75-5.03-2.24z" fill="#8c734b" data-color="1"></path>
        <path d="M163.78 23.46c0-2.32.79-4.27 2.37-5.85s3.53-2.37 5.85-2.37 4.27.79 5.85 2.37 2.37 3.53 2.37 5.85c.09 5.11.14 9.73.14 13.86v30.3c0 12.91-.05 27.54-.14 43.89 0 2.32-.79 4.27-2.37 5.85s-3.53 2.37-5.85 2.37-4.27-.79-5.85-2.37-2.37-3.53-2.37-5.85V23.46z" fill="#8c734b" data-color="1"></path>
        <path d="M38.43 147.89h-8.57l-1.77 6.3h-2.53l7.92-27.06h1.28l7.96 27.06h-2.51l-1.78-6.3zm-7.9-2.32h7.26l-3.57-12.47-.08-1-.08 1-3.53 12.47z" fill="#ffffff" data-color="2"></path>
        <path d="M65.1 150.14c-.35.81-.82 1.51-1.42 2.11-.6.6-1.31 1.08-2.12 1.42-.81.35-1.68.52-2.59.52H50.4v-27.06h8.57c.92 0 1.78.17 2.59.52.81.35 1.52.82 2.12 1.42.6.6 1.08 1.31 1.42 2.12.35.81.52 1.68.52 2.59v.26c0 .64-.08 1.25-.25 1.84-.17.59-.41 1.13-.73 1.63s-.69.96-1.11 1.37c-.43.41-.9.75-1.43 1.03.53.28 1.01.62 1.43 1.03a6.899 6.899 0 0 1 1.84 3.02c.17.59.25 1.2.25 1.84v1.74c0 .93-.17 1.79-.52 2.6zm-1.91-16.34c0-.6-.11-1.17-.34-1.69-.23-.52-.54-.98-.93-1.38a4.308 4.308 0 0 0-3.07-1.27h-6.02v9.32h6.02c.6 0 1.17-.11 1.69-.34s.98-.54 1.38-.93c.4-.4.71-.85.93-1.38.23-.52.34-1.08.34-1.69v-.64zm0 11.62c0-.6-.11-1.17-.34-1.69-.23-.52-.54-.98-.93-1.37-.4-.39-.86-.7-1.38-.92s-1.09-.34-1.69-.34h-6.02v10.77h6.02c.6 0 1.17-.11 1.69-.34.52-.23.98-.54 1.38-.92.4-.39.71-.85.93-1.37.23-.52.34-1.08.34-1.69v-2.13z" fill="#ffffff" data-color="2"></path>
        <path d="M87.99 150.52c-.35.81-.82 1.51-1.42 2.11-.6.6-1.31 1.08-2.11 1.42-.81.35-1.67.52-2.59.52h-1.92c-.92 0-1.78-.17-2.59-.52-.81-.35-1.52-.82-2.12-1.42-.6-.6-1.08-1.31-1.42-2.11-.35-.8-.52-1.67-.52-2.58V133.4c0-.92.17-1.78.52-2.59.35-.81.82-1.51 1.42-2.11.6-.6 1.31-1.08 2.12-1.42.81-.35 1.68-.52 2.59-.52h1.92c.92 0 1.78.17 2.59.52.8.35 1.51.82 2.11 1.42.6.6 1.08 1.31 1.42 2.11.35.81.52 1.67.52 2.59v14.53c-.01.92-.18 1.78-.52 2.59zm-1.92-17.12c0-.6-.11-1.17-.34-1.69a4.46 4.46 0 0 0-.92-1.37c-.39-.39-.85-.7-1.37-.92s-1.08-.34-1.69-.34h-1.7c-.6 0-1.17.11-1.69.34s-.98.54-1.38.92c-.4.39-.71.85-.93 1.37s-.34 1.09-.34 1.69v14.53c0 .6.11 1.17.34 1.69s.54.98.93 1.38c.4.4.85.71 1.38.93s1.09.34 1.69.34h1.7c.6 0 1.17-.11 1.69-.34s.98-.54 1.37-.93c.39-.4.7-.86.92-1.38.23-.52.34-1.08.34-1.69V133.4z" fill="#ffffff" data-color="2"></path>
        <path d="M127.94 129.46v24.73h-2.43v-24.73h-6.45v-2.32h15.34v2.32h-6.46z" fill="#ffffff" data-color="2"></path>
        <path d="M165.08 139.74c-.35.81-.82 1.51-1.42 2.11-.6.6-1.31 1.08-2.12 1.42-.81.35-1.68.52-2.59.52h-6.13v10.4h-2.43v-27.06h8.57c.92 0 1.78.17 2.59.52.81.35 1.52.82 2.12 1.42.6.6 1.08 1.31 1.42 2.12.35.81.52 1.68.52 2.59v3.36c-.02.94-.19 1.8-.53 2.6zm-1.92-5.94c0-.6-.11-1.17-.34-1.69-.23-.52-.54-.98-.93-1.38a4.308 4.308 0 0 0-3.07-1.27h-6.02v12.02h6.02c.6 0 1.17-.11 1.69-.34s.98-.54 1.38-.92c.4-.39.71-.85.93-1.37.23-.52.34-1.09.34-1.69v-3.36z" fill="#ffffff" data-color="2"></path>
        <path d="M183.55 147.89h-8.57l-1.77 6.3h-2.53l7.92-27.06h1.28l7.96 27.06h-2.51l-1.78-6.3zm-7.91-2.32h7.26l-3.57-12.47-.08-1-.08 1-3.53 12.47z" fill="#ffffff" data-color="2"></path>
        <path d="M206.05 154.2l-7.34-11.55h-3.34v11.55h-2.43v-27.06h8.58c.92 0 1.78.17 2.59.52.8.35 1.51.82 2.11 1.42.6.6 1.08 1.31 1.42 2.12.35.81.52 1.68.52 2.59v2.19c0 .92-.17 1.78-.52 2.59-.35.81-.82 1.52-1.42 2.12-.6.6-1.31 1.08-2.11 1.42-.81.35-1.67.52-2.59.52l7.34 11.55h-2.81zm-.32-20.4c0-.6-.11-1.17-.34-1.69a4.63 4.63 0 0 0-.92-1.38 4.286 4.286 0 0 0-3.06-1.27h-6.04v10.87h6.04c.6 0 1.17-.11 1.69-.34s.98-.54 1.37-.93c.39-.4.7-.85.92-1.38.23-.52.34-1.08.34-1.69v-2.19z" fill="#ffffff" data-color="2"></path>
        <path d="M222.83 129.46v24.73h-2.43v-24.73h-6.45v-2.32h15.34v2.32h-6.46z" fill="#ffffff" data-color="2"></path>
        <path d="M248.32 154.2l-11.28-19.7-.23-1.17v20.87h-2.43v-27.06h1.26l11.28 19.72.25 1.15v-20.87h2.43v27.06h-1.28z" fill="#ffffff" data-color="2"></path>
        <path d="M254.69 154.2v-27.06h15.22v2.32h-12.79v10.06h10.36v2.32h-10.36v10.04h12.79v2.32h-15.22z" fill="#ffffff" data-color="2"></path>
        <path d="M288.11 154.2l-7.34-11.55h-3.34v11.55H275v-27.06h8.58c.92 0 1.78.17 2.59.52.8.35 1.51.82 2.11 1.42.6.6 1.08 1.31 1.42 2.12.35.81.52 1.68.52 2.59v2.19c0 .92-.17 1.78-.52 2.59-.35.81-.82 1.52-1.42 2.12-.6.6-1.31 1.08-2.11 1.42-.81.35-1.67.52-2.59.52l7.34 11.55h-2.81zm-.32-20.4c0-.6-.11-1.17-.34-1.69a4.63 4.63 0 0 0-.92-1.38c-.39-.4-.85-.71-1.37-.93-.52-.23-1.08-.34-1.69-.34h-6.04v10.87h6.04c.6 0 1.17-.11 1.69-.34.52-.23.98-.54 1.37-.93.39-.4.7-.85.92-1.38.23-.52.34-1.08.34-1.69v-2.19z" fill="#ffffff" data-color="2"></path>
        <path d="M311.61 147.93c0 .92-.18 1.78-.56 2.58a6.915 6.915 0 0 1-3.66 3.53c-.82.35-1.69.52-2.61.52h-1.94c-.92 0-1.79-.17-2.61-.52-.82-.35-1.55-.82-2.17-1.42-.62-.6-1.12-1.31-1.49-2.11-.37-.8-.56-1.67-.56-2.58v-1.08l2.43-.4v1.47c0 .6.12 1.17.37 1.69s.58.98.99 1.38c.42.4.9.71 1.44.93.55.23 1.12.34 1.73.34h1.7c.6 0 1.18-.11 1.72-.34a4.77 4.77 0 0 0 1.43-.93c.42-.4.75-.86.99-1.38.25-.52.37-1.08.37-1.69v-.81c0-.93-.18-1.7-.55-2.32a5.32 5.32 0 0 0-1.45-1.58c-.6-.43-1.29-.8-2.05-1.1-.76-.3-1.54-.6-2.35-.91-.81-.3-1.59-.64-2.35-1s-1.44-.82-2.05-1.37c-.6-.55-1.09-1.22-1.45-2.01-.37-.79-.55-1.77-.55-2.92v-.51c0-.92.17-1.78.52-2.59.35-.81.82-1.51 1.42-2.11.6-.6 1.31-1.08 2.12-1.42.81-.35 1.68-.52 2.59-.52h1.74c.92 0 1.78.17 2.58.52.81.35 1.51.82 2.11 1.42.6.6 1.08 1.31 1.42 2.11.35.81.52 1.67.52 2.59v.7l-2.43.4v-1.09c0-.6-.11-1.17-.34-1.69s-.54-.98-.92-1.37c-.39-.39-.85-.7-1.37-.92a4.15 4.15 0 0 0-1.69-.34h-1.51c-.6 0-1.17.11-1.69.34-.52.23-.98.54-1.38.92-.4.39-.71.85-.93 1.37s-.34 1.09-.34 1.69v.51c0 .87.18 1.6.55 2.19.36.59.85 1.1 1.45 1.52.6.42 1.29.79 2.05 1.09.76.31 1.54.62 2.35.94.81.32 1.59.67 2.35 1.06.76.38 1.44.86 2.05 1.41.6.56 1.09 1.24 1.45 2.05.37.81.55 1.79.55 2.94v.82z" fill="#ffffff" data-color="2"></path>
        <path d="M168.7 168.21a2.527 2.527 0 0 0-1.8-.75h-3.54v13.2h3.54c.36 0 .69-.07.99-.2.31-.13.58-.31.81-.54.23-.23.42-.5.55-.8.13-.31.2-.64.2-.99v-8.1a2.615 2.615 0 0 0-.75-1.82z" fill="#8c734b" data-color="1"></path>
        <path d="M209.81 167.99a2.5 2.5 0 0 0-.81-.54c-.31-.13-.64-.2-.99-.2h-1c-.36 0-.69.07-.99.2-.31.13-.58.32-.81.54-.23.23-.42.5-.55.8-.13.31-.2.64-.2.99v8.55a2.527 2.527 0 0 0 .75 1.8 2.527 2.527 0 0 0 1.8.75h1a2.527 2.527 0 0 0 2.34-1.56c.13-.31.2-.64.2-.99v-8.55c0-.36-.07-.69-.2-.99-.13-.31-.31-.57-.54-.8z" fill="#8c734b" data-color="1"></path>
        <path d="M121.15 174.52c-.31-.13-.64-.2-.99-.2h-3.54v6.34h3.54c.36 0 .69-.07.99-.2.31-.13.58-.31.81-.54.23-.23.42-.5.55-.8.13-.31.2-.64.2-.99v-1.25c0-.36-.07-.69-.2-.99a2.38 2.38 0 0 0-.55-.8c-.23-.26-.5-.44-.81-.57z" fill="#8c734b" data-color="1"></path>
        <path d="M25.45 161.47v25.18h286.26v-25.18H25.45zm24.93 20.56h-7.53V166.1h1.43v14.56h6.1v1.37zm11.01-3.69c0 .54-.1 1.05-.31 1.52-.2.47-.48.89-.84 1.24s-.77.63-1.24.84c-.47.2-.98.3-1.52.3h-1.13c-.54 0-1.05-.1-1.53-.3-.48-.2-.89-.48-1.25-.84a3.888 3.888 0 0 1-1.15-2.76V166.1h1.43v12.24a2.527 2.527 0 0 0 .75 1.8 2.527 2.527 0 0 0 1.8.75h1a2.527 2.527 0 0 0 2.34-1.56c.13-.31.2-.64.2-.99V166.1h1.43v12.24zm10.39 3.69l-3.28-6.62-3.28 6.62h-1.56l4.05-8.19-3.82-7.74h1.54l3.06 6.16 3.04-6.16h1.54l-3.82 7.74 4.05 8.19h-1.52zm12.77-3.69c0 .54-.1 1.05-.31 1.52s-.48.89-.84 1.24-.77.63-1.24.84c-.47.2-.98.3-1.52.3h-1.13c-.54 0-1.05-.1-1.53-.3-.48-.2-.89-.48-1.25-.84s-.63-.77-.84-1.24-.31-.98-.31-1.52V166.1h1.43v12.24a2.527 2.527 0 0 0 .75 1.8 2.527 2.527 0 0 0 1.8.75h1c.36 0 .69-.07.99-.2s.58-.32.81-.55c.23-.23.41-.5.54-.81.13-.31.2-.64.2-.99V166.1h1.43v12.24zm10.91 3.69l-4.32-6.8h-1.97v6.8h-1.43V166.1h5.05c.54 0 1.05.1 1.52.3.47.2.89.48 1.24.84a3.945 3.945 0 0 1 1.15 2.78v1.29c0 .54-.1 1.05-.31 1.53-.2.48-.48.89-.84 1.25-.36.35-.77.63-1.24.84-.47.2-.98.3-1.52.3l4.32 6.8h-1.65zm8.12-7.62v7.62h-1.43v-7.6l-4.12-8.33h1.54l3.28 6.62 3.28-6.62h1.54l-4.09 8.31zm20.57-4.24a3.809 3.809 0 0 1-.58 2.04c-.19.3-.4.56-.66.8-.25.24-.53.44-.84.61.31.16.59.36.84.61.25.24.47.51.66.81a3.86 3.86 0 0 1 .58 2.05v1.02c0 .54-.1 1.05-.31 1.52-.2.47-.48.89-.84 1.24a3.945 3.945 0 0 1-2.78 1.15h-5.04V166.1h5.04c.54 0 1.05.1 1.53.3.48.2.89.48 1.25.84s.63.77.84 1.25c.2.48.31.99.31 1.53v.15zm10.22 11.86l-4.32-6.8h-1.97v6.8h-1.43V166.1h5.05c.54 0 1.05.1 1.52.3.47.2.89.48 1.24.84a3.945 3.945 0 0 1 1.15 2.78v1.29c0 .54-.1 1.05-.31 1.53-.2.48-.48.89-.84 1.25-.36.35-.77.63-1.24.84-.47.2-.98.3-1.52.3l4.32 6.8h-1.65zm11.42 0l-1.06-3.71h-5.04l-1.04 3.71h-1.49l4.67-15.93h.76l4.69 15.93h-1.49zm12.48 0h-.76l-6.64-11.6-.13-.69v12.29h-1.43V166.1h.74l6.64 11.61.14.68V166.1h1.43v15.93zm12.61-3.91c0 .54-.1 1.05-.31 1.52-.2.47-.48.89-.84 1.24a3.945 3.945 0 0 1-2.78 1.15h-5.04V166.1h5.04c.54 0 1.05.1 1.53.3.48.2.89.48 1.25.84s.63.77.84 1.25c.2.48.31.99.31 1.53v8.1zm12.14.22c0 .54-.11 1.05-.33 1.52-.22.47-.51.89-.88 1.24s-.79.63-1.28.84c-.49.2-1 .3-1.54.3h-1.14a4.024 4.024 0 0 1-2.82-1.14c-.37-.36-.66-.77-.88-1.24-.22-.47-.33-.98-.33-1.52v-.63l1.43-.23v.87c0 .35.07.69.22.99a2.705 2.705 0 0 0 2.45 1.56h1a2.66 2.66 0 0 0 1.85-.75c.24-.23.44-.5.58-.81.14-.31.22-.64.22-.99v-.48c0-.55-.11-1-.32-1.37-.21-.36-.5-.67-.86-.93a5.58 5.58 0 0 0-1.21-.65c-.45-.18-.91-.36-1.38-.53-.47-.18-.93-.37-1.38-.59-.45-.21-.85-.48-1.21-.8a3.67 3.67 0 0 1-.86-1.18c-.21-.47-.32-1.04-.32-1.72v-.3c0-.54.1-1.05.31-1.52.2-.47.48-.89.84-1.24a3.945 3.945 0 0 1 2.78-1.15H179c.54 0 1.05.1 1.52.31.47.2.89.48 1.24.84.36.35.63.77.84 1.24.2.47.31.98.31 1.52v.41l-1.43.23v-.64a2.508 2.508 0 0 0-1.55-2.33c-.31-.13-.64-.2-.99-.2h-.89c-.36 0-.69.07-.99.2-.31.13-.58.32-.81.54-.23.23-.42.5-.55.8-.13.31-.2.64-.2.99v.3c0 .51.11.94.32 1.29.21.35.5.65.86.89.36.25.76.46 1.21.64.45.18.91.37 1.38.56.47.19.93.4 1.38.62.45.23.85.5 1.21.83.36.33.64.73.86 1.2.21.47.32 1.05.32 1.73v.48zm17.05-7.91l-1.43.22v-.87a2.508 2.508 0 0 0-1.55-2.33c-.31-.13-.64-.2-.99-.2h-1c-.36 0-.69.07-.99.2-.31.13-.58.32-.81.54-.23.23-.42.5-.55.8-.13.31-.2.64-.2.99v8.55a2.527 2.527 0 0 0 .75 1.8 2.527 2.527 0 0 0 1.8.75h1a2.527 2.527 0 0 0 2.34-1.56c.13-.31.2-.64.2-.99v-.87l1.43.23v.63c0 .54-.1 1.05-.31 1.52-.2.47-.48.89-.84 1.24s-.77.63-1.24.84c-.47.2-.98.3-1.52.3h-1.13c-.54 0-1.05-.1-1.53-.3-.48-.2-.89-.48-1.25-.84a3.888 3.888 0 0 1-1.15-2.76v-8.55c0-.54.1-1.05.31-1.52.2-.47.48-.89.84-1.24a3.945 3.945 0 0 1 2.78-1.15h1.13c.54 0 1.05.1 1.52.31.47.2.89.48 1.24.84.36.35.64.77.84 1.24.2.47.31.98.31 1.52v.66zm11.92 7.91c0 .54-.1 1.05-.31 1.52-.2.47-.48.89-.84 1.24s-.77.63-1.24.84c-.47.2-.98.3-1.52.3h-1.13c-.54 0-1.05-.1-1.53-.3-.48-.2-.89-.48-1.25-.84a3.888 3.888 0 0 1-1.15-2.76v-8.55c0-.54.1-1.05.31-1.52.2-.47.48-.89.84-1.24a3.945 3.945 0 0 1 2.78-1.15h1.13c.54 0 1.05.1 1.52.31.47.2.89.48 1.24.84.36.35.64.77.84 1.24.2.47.31.98.31 1.52v8.55zm10.72 3.69h-7.53V166.1h1.43v14.56h6.1v1.37zm9.57 0h-7.53V166.1h1.43v14.56h6.1v1.37zm11.24-14.57h-7.53v5.92h6.1v1.37h-6.1v5.91h7.53v1.37h-8.96V166.1h8.96v1.36zm11.47 2.97l-1.43.22v-.87a2.508 2.508 0 0 0-1.55-2.33c-.31-.13-.64-.2-.99-.2h-1c-.36 0-.69.07-.99.2-.31.13-.58.32-.81.54-.23.23-.42.5-.55.8-.13.31-.2.64-.2.99v8.55a2.527 2.527 0 0 0 .75 1.8 2.527 2.527 0 0 0 1.8.75h1a2.527 2.527 0 0 0 2.34-1.56c.13-.31.2-.64.2-.99v-.87l1.43.23v.63c0 .54-.1 1.05-.31 1.52-.2.47-.48.89-.84 1.24s-.77.63-1.24.84c-.47.2-.98.3-1.52.3h-1.13c-.54 0-1.05-.1-1.53-.3-.48-.2-.89-.48-1.25-.84a3.888 3.888 0 0 1-1.15-2.76v-8.55c0-.54.1-1.05.31-1.52.2-.47.48-.89.84-1.24a3.945 3.945 0 0 1 2.78-1.15h1.13c.54 0 1.05.1 1.52.31.47.2.89.48 1.24.84.36.35.64.77.84 1.24.2.47.31.98.31 1.52v.66zm10.85-2.97h-3.8v14.56h-1.43v-14.56h-3.8v-1.37h9.03v1.37zm3.71 14.57h-1.43V166.1h1.43v15.93zm12.38-3.69c0 .54-.1 1.05-.31 1.52-.2.47-.48.89-.84 1.24s-.77.63-1.24.84c-.47.2-.98.3-1.52.3h-1.13c-.54 0-1.05-.1-1.53-.3-.48-.2-.89-.48-1.25-.84a3.888 3.888 0 0 1-1.15-2.76v-8.55c0-.54.1-1.05.31-1.52.2-.47.48-.89.84-1.24a3.945 3.945 0 0 1 2.78-1.15h1.13c.54 0 1.05.1 1.52.31.47.2.89.48 1.24.84.36.35.64.77.84 1.24.2.47.31.98.31 1.52v8.55zm12.39 3.69h-.76l-6.64-11.6-.13-.69v12.29h-1.43V166.1h.74l6.64 11.61.14.68V166.1h1.43v15.93z" fill="#8c734b" data-color="1"></path>
        <path fill="#8c734b" d="M142.21 169.02l-.04.59-2.09 7.34h4.27l-2.1-7.34-.04-.59z" data-color="1"></path>
        <path d="M133.43 173.11c.23-.23.41-.5.54-.81.13-.31.2-.64.2-.99v-1.29c0-.35-.07-.69-.2-.99a2.527 2.527 0 0 0-2.34-1.56h-3.55v6.4h3.55a2.466 2.466 0 0 0 1.8-.76z" fill="#8c734b" data-color="1"></path>
        <path d="M121.96 168.21a2.527 2.527 0 0 0-1.8-.75h-3.54v5.49h3.54a2.527 2.527 0 0 0 1.8-.75 2.527 2.527 0 0 0 .75-1.8v-.38c0-.35-.07-.69-.2-.99-.13-.31-.31-.58-.55-.82z" fill="#8c734b" data-color="1"></path>
        <path d="M279.75 167.99a2.5 2.5 0 0 0-.81-.54c-.31-.13-.64-.2-.99-.2h-1c-.36 0-.69.07-.99.2-.31.13-.58.32-.81.54-.23.23-.42.5-.55.8-.13.31-.2.64-.2.99v8.55a2.527 2.527 0 0 0 .75 1.8 2.527 2.527 0 0 0 1.8.75h1a2.527 2.527 0 0 0 2.34-1.56c.13-.31.2-.64.2-.99v-8.55c0-.36-.07-.69-.2-.99-.13-.31-.31-.57-.54-.8z" fill="#8c734b" data-color="1"></path>
        <path d="M94.53 173.11c.23-.23.41-.5.54-.81.13-.31.2-.64.2-.99v-1.29c0-.35-.07-.69-.2-.99a2.527 2.527 0 0 0-2.34-1.56h-3.55v6.4h3.55a2.466 2.466 0 0 0 1.8-.76z" fill="#8c734b" data-color="1"></path>
    </g>
</svg>