<svg id="Layer_1" data-name="Layer 1" xmlns="http://www.w3.org/2000/svg" viewBox="0 0 782.54 258.78"><defs><style>.cls-1{fill:#b14fc5;}.cls-2{fill:#ff595a;}.cls-3{fill:#53c1ad;}.cls-4{fill:#425cc7;}.cls-5{fill:#4ac7e8;}.cls-6{fill:#f5d93f;}.cls-7{fill:#231f20;}</style></defs><title>Insigths logo</title><path class="cls-1" d="M71.47,82.89a6.28,6.28,0,0,0-3,4.36,8.36,8.36,0,0,0,1,5.42,7.62,7.62,0,0,1,.76,3.06,3.73,3.73,0,0,1-1.94,3.34,6.68,6.68,0,0,1,4.61-.93,14.55,14.55,0,0,1,3.8,1,17.17,17.17,0,0,0,6.91,1.71,10.43,10.43,0,0,0,6.14-1.52,6.86,6.86,0,0,0,2.5-2.68,6.38,6.38,0,0,0,.68-3.43,9.25,9.25,0,0,0-1.19-3.75,14.46,14.46,0,0,0-3-3.63,18,18,0,0,0-4.2-2.83,17.72,17.72,0,0,0-4.65-1.53,14.22,14.22,0,0,0-4.55-.07A10.08,10.08,0,0,0,71.47,82.89Z"/><path class="cls-2" d="M92.29,67.87a6.27,6.27,0,0,0-3,4.36,8.37,8.37,0,0,0,1,5.42A7.62,7.62,0,0,1,91,80.71a3.73,3.73,0,0,1-1.94,3.34,6.68,6.68,0,0,1,4.61-.93,14.55,14.55,0,0,1,3.8,1,17.17,17.17,0,0,0,6.91,1.71,10.45,10.45,0,0,0,6.14-1.52,6.94,6.94,0,0,0,2.5-2.68,6.48,6.48,0,0,0,.68-3.43,9.12,9.12,0,0,0-1.2-3.75,14.36,14.36,0,0,0-3-3.63,18,18,0,0,0-4.2-2.83,17.72,17.72,0,0,0-4.65-1.53,14.22,14.22,0,0,0-4.55-.07A10.08,10.08,0,0,0,92.29,67.87Z"/><path class="cls-3" d="M94.94,96.83a7.05,7.05,0,0,0-3,4.32,7.8,7.8,0,0,0,.56,5.09A6.75,6.75,0,0,1,93,109.1a4.17,4.17,0,0,1-2,3.3,6.6,6.6,0,0,1,4.31-1.18,11.73,11.73,0,0,1,3.43.77,14.23,14.23,0,0,0,6.27,1.19,10.5,10.5,0,0,0,5.75-1.83,7.83,7.83,0,0,0,2.47-2.71,6.85,6.85,0,0,0,.84-3.29,8.07,8.07,0,0,0-.87-3.49,11,11,0,0,0-2.5-3.27A14.17,14.17,0,0,0,102.79,95a12.7,12.7,0,0,0-4.18.21A10.3,10.3,0,0,0,94.94,96.83Z"/><path class="cls-4" d="M55.38,105.65A14.43,14.43,0,0,0,57,112.56a21.67,21.67,0,0,0,4.45,6.22,18.43,18.43,0,0,1,2.62,3.4,9.16,9.16,0,0,1,1.41,5.12c.14-1.84.72-3,1.74-3.49a5.35,5.35,0,0,1,2.76-.61,6.26,6.26,0,0,0,4.88-1.39,6.62,6.62,0,0,0,2.12-5,13.61,13.61,0,0,0-.64-4.59,18.33,18.33,0,0,0-2.13-4.59,21,21,0,0,0-3.35-4,18.75,18.75,0,0,0-4.19-3,12.29,12.29,0,0,0-4.26-1.38,6.8,6.8,0,0,0-3.55.47,5.36,5.36,0,0,0-2.44,2.21A8,8,0,0,0,55.38,105.65Z"/><path class="cls-5" d="M78.4,117.58A14.33,14.33,0,0,0,80,124.49a21.83,21.83,0,0,0,4.44,6.22,18.42,18.42,0,0,1,2.63,3.4,9.1,9.1,0,0,1,1.4,5.12c.14-1.84.73-3,1.75-3.49a5.35,5.35,0,0,1,2.76-.61,6.24,6.24,0,0,0,4.87-1.39,6.59,6.59,0,0,0,2.12-5,13.38,13.38,0,0,0-.63-4.59,19.24,19.24,0,0,0-2.13-4.59,21.42,21.42,0,0,0-3.35-4,18.61,18.61,0,0,0-4.19-3,12.25,12.25,0,0,0-4.26-1.39,6.8,6.8,0,0,0-3.55.47,5.33,5.33,0,0,0-2.44,2.22A7.9,7.9,0,0,0,78.4,117.58Z"/><path class="cls-6" d="M101.43,129.51a14.33,14.33,0,0,0,1.59,6.91,21.45,21.45,0,0,0,4.44,6.22,19.23,19.23,0,0,1,2.63,3.4,9.11,9.11,0,0,1,1.4,5.13c.14-1.85.72-3,1.74-3.49a5.42,5.42,0,0,1,2.77-.62,6.25,6.25,0,0,0,4.87-1.39,6.6,6.6,0,0,0,2.12-5,13.62,13.62,0,0,0-.63-4.59,18.83,18.83,0,0,0-2.14-4.58,21.05,21.05,0,0,0-3.34-4,18.35,18.35,0,0,0-4.19-3,12,12,0,0,0-4.27-1.38,6.82,6.82,0,0,0-3.55.46,5.31,5.31,0,0,0-2.43,2.22A7.93,7.93,0,0,0,101.43,129.51Z"/><path class="cls-2" d="M54.12,133.75a14.4,14.4,0,0,0,1.58,6.91,21.67,21.67,0,0,0,4.45,6.22,18.56,18.56,0,0,1,2.62,3.41,9.08,9.08,0,0,1,1.41,5.12c.14-1.84.72-3,1.74-3.49a5.37,5.37,0,0,1,2.76-.62,6.26,6.26,0,0,0,4.88-1.39,6.6,6.6,0,0,0,2.12-5,13.88,13.88,0,0,0-.63-4.59,18.83,18.83,0,0,0-2.14-4.58,20.74,20.74,0,0,0-3.35-4,18.14,18.14,0,0,0-4.19-3,11.89,11.89,0,0,0-4.26-1.38,6.8,6.8,0,0,0-3.55.46A5.38,5.38,0,0,0,55.12,130,7.93,7.93,0,0,0,54.12,133.75Z"/><path class="cls-1" d="M77.14,145.68a14.36,14.36,0,0,0,1.59,6.92,21.92,21.92,0,0,0,4.44,6.21,18.54,18.54,0,0,1,2.63,3.41,9.07,9.07,0,0,1,1.4,5.12c.14-1.84.73-3,1.75-3.49a5.25,5.25,0,0,1,2.76-.61,6.28,6.28,0,0,0,4.87-1.39,6.59,6.59,0,0,0,2.12-5,13.4,13.4,0,0,0-.63-4.6,19.18,19.18,0,0,0-2.13-4.58,21.11,21.11,0,0,0-3.35-4,19,19,0,0,0-4.19-3,12.43,12.43,0,0,0-4.26-1.38,6.8,6.8,0,0,0-3.55.46,5.33,5.33,0,0,0-2.44,2.22A7.93,7.93,0,0,0,77.14,145.68Z"/><path class="cls-3" d="M100.17,157.61a14.34,14.34,0,0,0,1.59,6.92,21.27,21.27,0,0,0,4.44,6.21,19.36,19.36,0,0,1,2.63,3.41,9.07,9.07,0,0,1,1.4,5.12c.14-1.84.72-3,1.74-3.49a5.4,5.4,0,0,1,2.77-.61,6.29,6.29,0,0,0,4.87-1.39,6.62,6.62,0,0,0,2.12-5,13.56,13.56,0,0,0-.63-4.59,18.73,18.73,0,0,0-2.14-4.59,21.05,21.05,0,0,0-3.34-4,19,19,0,0,0-4.19-3,12.41,12.41,0,0,0-4.27-1.38,6.71,6.71,0,0,0-3.55.47,5.24,5.24,0,0,0-2.43,2.21A7.93,7.93,0,0,0,100.17,157.61Z"/><path class="cls-5" d="M52.86,161.86a14.33,14.33,0,0,0,1.59,6.91A21.45,21.45,0,0,0,58.89,175a18.43,18.43,0,0,1,2.62,3.4,9.08,9.08,0,0,1,1.41,5.12c.14-1.84.72-3,1.74-3.49a5.36,5.36,0,0,1,2.77-.61A6.25,6.25,0,0,0,72.3,178a6.62,6.62,0,0,0,2.12-5,13.84,13.84,0,0,0-.63-4.59,18.73,18.73,0,0,0-2.14-4.59,21,21,0,0,0-3.35-4,18.75,18.75,0,0,0-4.19-3,12.29,12.29,0,0,0-4.26-1.38,6.8,6.8,0,0,0-3.55.47,5.36,5.36,0,0,0-2.44,2.21A8,8,0,0,0,52.86,161.86Z"/><path class="cls-6" d="M75.88,173.79a14.33,14.33,0,0,0,1.59,6.91,21.83,21.83,0,0,0,4.44,6.22,18.42,18.42,0,0,1,2.63,3.4,9.1,9.1,0,0,1,1.4,5.12c.14-1.84.73-3,1.75-3.49a5.35,5.35,0,0,1,2.76-.61A6.24,6.24,0,0,0,95.32,190a6.55,6.55,0,0,0,2.12-5,13.38,13.38,0,0,0-.63-4.59,19.24,19.24,0,0,0-2.13-4.59,21.42,21.42,0,0,0-3.35-4,18.39,18.39,0,0,0-4.19-3,12.25,12.25,0,0,0-4.26-1.39,6.8,6.8,0,0,0-3.55.47,5.33,5.33,0,0,0-2.44,2.22A7.9,7.9,0,0,0,75.88,173.79Z"/><path class="cls-4" d="M98.91,185.72a14.33,14.33,0,0,0,1.59,6.91,21.45,21.45,0,0,0,4.44,6.22,18.77,18.77,0,0,1,2.63,3.4,9.11,9.11,0,0,1,1.4,5.13c.14-1.85.72-3,1.74-3.49a5.42,5.42,0,0,1,2.77-.62,6.25,6.25,0,0,0,4.87-1.39,6.6,6.6,0,0,0,2.12-5,13.38,13.38,0,0,0-.63-4.59,19,19,0,0,0-2.13-4.58,21.48,21.48,0,0,0-3.35-4,18.35,18.35,0,0,0-4.19-3,12,12,0,0,0-4.27-1.38,6.82,6.82,0,0,0-3.55.46A5.31,5.31,0,0,0,99.92,182,7.93,7.93,0,0,0,98.91,185.72Z"/><path class="cls-5" d="M119.3,51.78a9.77,9.77,0,0,0-3.89,1.43,6.25,6.25,0,0,0-3,4.35,8.37,8.37,0,0,0,1,5.42,7.62,7.62,0,0,1,.76,3.06,3.73,3.73,0,0,1-1.94,3.34,6.68,6.68,0,0,1,4.61-.93,14.51,14.51,0,0,1,3.8,1.06,18.17,18.17,0,0,0,2.38.91V51.76A13.88,13.88,0,0,0,119.3,51.78Z"/><path class="cls-4" d="M119.22,108.38a6.25,6.25,0,0,0-3,4.36,8.4,8.4,0,0,0,1,5.41,7.71,7.71,0,0,1,.77,3.07,3.76,3.76,0,0,1-1.94,3.34,6.74,6.74,0,0,1,4.61-.94,19,19,0,0,1,2.37.55V107A9.75,9.75,0,0,0,119.22,108.38Z"/><path class="cls-1" d="M119.24,80.06a10.79,10.79,0,0,0-3.52,1.72,7.93,7.93,0,0,0-3.06,4.31,7.44,7.44,0,0,0,.26,4.85,6.29,6.29,0,0,1,.33,2.71,4.55,4.55,0,0,1-2,3.27,6.48,6.48,0,0,1,4.09-1.35,9.92,9.92,0,0,1,3.17.56A12.12,12.12,0,0,0,123,97V79.63A12,12,0,0,0,119.24,80.06Z"/><path class="cls-7" d="M137.86,100H152.8V206.28H137.86Z"/><path class="cls-7" d="M234.22,100H249V206.28h-5.66l-63.66-72.94v72.94H164.43V100h5.66l64.13,73.89Z"/><path class="cls-7" d="M320.36,161.48a30,30,0,0,1,5.19,16.5q0,12-9.12,20.91a30.5,30.5,0,0,1-22,8.8,32.85,32.85,0,0,1-18.08-5.34q-8-5.19-14.62-17.45l-1.1-1.89,12.57-7.7,1.26,2.2a38.48,38.48,0,0,0,9.28,12,15.39,15.39,0,0,0,9.74,3.61,18.16,18.16,0,0,0,8.49-2,14.71,14.71,0,0,0,5.82-5.5,14.29,14.29,0,0,0,2-7.39,14.5,14.5,0,0,0-3-8.65q-4.58-6.6-16.83-15.72-13-9.9-16.34-14.46a27.29,27.29,0,0,1-5.82-16.82,25.6,25.6,0,0,1,3.46-13.36,23.31,23.31,0,0,1,4.24-5.34,27.45,27.45,0,0,1,5.66-4.09,26.85,26.85,0,0,1,13.68-3.46,27.24,27.24,0,0,1,14.46,3.93q6.92,3.78,14,13.68l1.42,1.88-11.95,9.12L311.25,123q-5.5-7.23-9-9.43a14.91,14.91,0,0,0-7.71-2q-5.34,0-8.33,3A10,10,0,0,0,283,122a14.24,14.24,0,0,0,1.26,5.5,18.59,18.59,0,0,0,4.56,6,23,23,0,0,0,3.3,2.83q2.67,2,9.59,7.07Q315.18,153.47,320.36,161.48Z"/><path class="cls-7" d="M337.18,100h14.94V206.28H337.18Z"/><path class="cls-7" d="M476.93,151.89l-.16,2.36q0,24.51-14.62,39.14-14.46,14.46-38.67,14.46-14.94,0-26.25-4.87A58.06,58.06,0,0,1,377,187.89a53.6,53.6,0,0,1-13.2-35.69,54.87,54.87,0,0,1,7.7-28.13,54.27,54.27,0,0,1,20.75-20.28q13.05-7.4,29.71-7.39a65.44,65.44,0,0,1,12.89,1.26,71.82,71.82,0,0,1,12.26,3.61q11.64,4.88,23.11,15.41l1.73,1.73-11.32,10.84L459,127.52a55.94,55.94,0,0,0-17.92-12.1,46.48,46.48,0,0,0-18.87-4.09,44.86,44.86,0,0,0-21.53,5.5,38.89,38.89,0,0,0-15.88,15.09,38.25,38.25,0,0,0-5.66,20A39,39,0,0,0,385,172.48a40.5,40.5,0,0,0,16,15.41,46.57,46.57,0,0,0,22.64,5.66q14.92,0,25.15-8.34a32.2,32.2,0,0,0,4.48-4.4,37.88,37.88,0,0,0,3.54-5,36.33,36.33,0,0,0,3.46-9.27H428.35V151.89Z"/><path class="cls-7" d="M550.34,100h14.93V206.28H550.34V157.23h-47v49.05H488.56V100h14.78v42.6h47Z"/><path class="cls-7" d="M576.9,99.39h76.24V114H622.65v91.81H607.56V114H576.9Z"/><path class="cls-7" d="M724.51,161.48A30,30,0,0,1,729.7,178q0,12-9.12,20.91a30.54,30.54,0,0,1-22,8.8,32.82,32.82,0,0,1-18.07-5.34q-8-5.19-14.63-17.45L664.78,183l12.57-7.7,1.26,2.2a38.46,38.46,0,0,0,9.27,12,15.41,15.41,0,0,0,9.75,3.61,18.16,18.16,0,0,0,8.49-2,14.68,14.68,0,0,0,5.81-5.5,14.21,14.21,0,0,0,2.05-7.39,14.45,14.45,0,0,0-3-8.65q-4.56-6.6-16.82-15.72-13-9.9-16.35-14.46A27.28,27.28,0,0,1,672,122.49a25.69,25.69,0,0,1,3.45-13.36,23.35,23.35,0,0,1,4.25-5.34,27.18,27.18,0,0,1,5.66-4.09A26.84,26.84,0,0,1,699,96.24a27.25,27.25,0,0,1,14.47,3.93q6.91,3.78,14,13.68l1.41,1.88L717,124.85,715.39,123q-5.5-7.23-9-9.43a14.85,14.85,0,0,0-7.7-2q-5.34,0-8.33,3a10,10,0,0,0-3.3,7.54,14.21,14.21,0,0,0,1.25,5.5,18.89,18.89,0,0,0,4.56,6,23.6,23.6,0,0,0,3.3,2.83q2.68,2,9.59,7.07Q719.32,153.47,724.51,161.48Z"/><path class="cls-7" d="M157.14,52h4.67V85.12h-4.67V69.82H142.47v15.3h-4.61V52h4.61V65.25h14.67Z"/><path class="cls-7" d="M210.69,55.93a16.81,16.81,0,0,1,5.05,12.37,17.24,17.24,0,0,1-17.37,17.41,17.15,17.15,0,0,1-12.46-5,16.64,16.64,0,0,1-5-12.22,17.62,17.62,0,0,1,2.31-8.83,17.11,17.11,0,0,1,14.91-8.68A17.33,17.33,0,0,1,210.69,55.93ZM211,68.3a13,13,0,0,0-1.62-6.48,13,13,0,0,0-11.13-6.33A12.38,12.38,0,0,0,192,57.21a13.25,13.25,0,0,0-4.66,4.66,12.84,12.84,0,0,0-1.67,6.57,12.64,12.64,0,0,0,.93,5,12.58,12.58,0,0,0,11.68,7.75,13.24,13.24,0,0,0,6.47-1.67,11.89,11.89,0,0,0,4.62-4.66A12.67,12.67,0,0,0,211,68.3Z"/><path class="cls-7" d="M234.87,51.76h23.8v4.56h-9.52V85h-4.71V56.32h-9.57Z"/><path class="cls-7" d="M305.07,56.57h-15V65h14.87v4.61H290.06v11h14.87v4.56H285.4V52h19.67Z"/><path class="cls-7" d="M339.9,80.61h12.22v4.51H335.29V52h4.61Z"/></svg>