<?xml version="1.0" encoding="utf-8"?>
<!-- Generator: Adobe Illustrator 16.0.0, SVG Export Plug-In . SVG Version: 6.00 Build 0)  -->
<!DOCTYPE svg PUBLIC "-//W3C//DTD SVG 1.1//EN" "http://www.w3.org/Graphics/SVG/1.1/DTD/svg11.dtd">
<svg version="1.1" id="Layer_1" xmlns="http://www.w3.org/2000/svg" xmlns:xlink="http://www.w3.org/1999/xlink" x="0px" y="0px"
	 width="109.787px" height="46.708px" viewBox="0 3.042 109.787 46.708" enable-background="new 0 3.042 109.787 46.708"
	 xml:space="preserve">
<title>Logo #3</title>
<g id="Layer_2">
	<g id="Layer_1-2">
		<rect x="0" y="4.708" display="none" width="109.787" height="44.042"/>
		<path fill="#FFFFFF" d="M12.161,34.42l2.026,2.831c-1.645,1.545-3.822,2.393-6.078,2.365c-5.662,0-8.069-3.587-8.069-8.57
			c0-4.625,2.532-8.534,7.598-8.534c5.065,0,6.918,3.544,6.918,7.09c0.004,0.951-0.093,1.9-0.289,2.83H4.458
			c0.107,2.154,1.328,3.481,3.692,3.481C9.618,35.888,11.033,35.361,12.161,34.42z M10.51,29.355
			c0.034-0.179,0.059-0.356,0.071-0.538c0-1.934-1.362-2.829-2.902-2.829c-2.153,0-3.083,1.519-3.19,3.367H10.51z"/>
		<path fill="#FFFFFF" d="M46.22,39.227h-4.193v-1.864c-0.862,1.222-2.437,2.224-5.065,2.224c-3.692,0-5.571-2.258-5.571-6.487
			V22.876h4.376v9.716c0,1.97,0.754,3.011,2.938,3.011c1.172-0.023,2.3-0.456,3.19-1.22V22.876h4.335L46.22,39.227z"/>
		<path fill="#FFFFFF" d="M61.445,34.42l2.026,2.831c-1.644,1.545-3.822,2.393-6.078,2.365c-5.662,0-8.068-3.587-8.068-8.57
			c0-4.625,2.532-8.534,7.597-8.534c5.065,0,6.918,3.544,6.918,7.09c0.004,0.951-0.092,1.9-0.288,2.83h-9.8
			c0.106,2.154,1.327,3.481,3.693,3.481C58.908,35.886,60.321,35.359,61.445,34.42z M59.793,29.355
			c0.036-0.179,0.059-0.356,0.071-0.538c0-1.934-1.363-2.829-2.9-2.829c-2.154,0-3.085,1.519-3.191,3.367H59.793z"/>
		<path fill="#B99750" d="M67.016,22.876h4.192v1.866c1.097-1.419,2.796-2.243,4.59-2.224c2.617,0,3.979,1.014,4.983,2.401
			c0.896-1.144,2.795-2.401,5.662-2.401c4.123,0,5.845,2.152,5.845,6.128v10.58h-4.374V29.006c0-1.579-0.721-2.532-2.725-2.532
			c-1.215-0.023-2.394,0.412-3.298,1.221v11.532h-4.336V28.085c-0.629-1.048-1.793-1.656-3.013-1.576
			c-1.174,0.021-2.302,0.454-3.19,1.222v11.496h-4.336L67.016,22.876L67.016,22.876z"/>
		<path fill="#B99750" d="M107.392,34.42l2.025,2.831c-1.644,1.545-3.822,2.393-6.078,2.365c-5.663,0-8.066-3.587-8.066-8.57
			c0-4.625,2.531-8.534,7.595-8.534c5.065,0,6.919,3.544,6.919,7.09c0.003,0.951-0.093,1.9-0.289,2.83h-9.814
			c0.106,2.154,1.327,3.481,3.691,3.481C104.845,35.89,106.262,35.361,107.392,34.42z M105.74,29.355
			c0.035-0.179,0.057-0.356,0.071-0.538c0-1.934-1.363-2.829-2.902-2.829c-2.152,0-3.084,1.519-3.189,3.367H105.74z"/>
		<path fill="#FFFFFF" d="M24.144,32.212l-5.309-8.762H13.65l9.556,15.766C22.725,36.588,24.144,32.212,24.144,32.212z"/>
		<path fill="#B99750" d="M36.664,12.157c-0.289,0.132-9.962,4.3-13.168,14.549c-0.223,0.721-1.52,7.699-0.36,12.48l0,0h4.913
			C26.671,31.274,25.628,20.386,36.664,12.157z"/>
		<polygon fill="#B99750" points="19.479,13.827 19.479,22.376 25.572,18.102 		"/>
	</g>
</g>
<image display="none" overflow="visible" enable-background="new    " width="288" height="82" xlink:href="../../Mano/Logos without Tagline/PNG/Logo #3.png"  transform="matrix(0.3783 0 0 0.3783 58.5613 -6.5)">
</image>
</svg>
