<?xml version="1.0" encoding="UTF-8" standalone="no"?>
<svg width="33px" height="34px" viewBox="0 0 33 34" version="1.1" xmlns="http://www.w3.org/2000/svg" xmlns:xlink="http://www.w3.org/1999/xlink" xmlns:sketch="http://www.bohemiancoding.com/sketch/ns">
    <!-- Generator: Sketch 3.5.2 (25235) - http://www.bohemiancoding.com/sketch -->
    <title>logo_googleg_48dp</title>
    <desc>Created with Sketch.</desc>
    <defs></defs>
    <g id="Accept-Team-Invite-Flow" stroke="none" stroke-width="1" fill="none" fill-rule="evenodd" sketch:type="MSPage">
        <g id="Chrome-Extension" sketch:type="MSArtboardGroup" transform="translate(-382.000000, -285.000000)">
            <g id="Group-3-Copy" sketch:type="MSLayerGroup" transform="translate(365.000000, 267.000000)">
                <g id="logo_googleg_48dp" transform="translate(13.000000, 14.000000)" sketch:type="MSShapeGroup">
                    <path d="M36.6073333,21.1579545 C36.6073333,19.9891364 36.5024394,18.8652727 36.3076364,17.7863636 L20.7833333,17.7863636 L20.7833333,24.1624167 L29.6543636,24.1624167 C29.27225,26.2228333 28.1109242,27.9685682 26.3651894,29.1373864 L26.3651894,33.2732045 L31.692303,33.2732045 C34.8091515,30.4036061 36.6073333,26.1778788 36.6073333,21.1579545 L36.6073333,21.1579545 Z" id="Shape" fill="#4285F4"></path>
                    <path d="M20.7833333,37.2666667 C25.2338333,37.2666667 28.9650606,35.7906591 31.692303,33.2732045 L26.3651894,29.1373864 C24.8891818,30.1263864 23.0010909,30.7107955 20.7833333,30.7107955 C16.4901742,30.7107955 12.8563485,27.8112273 11.5601591,23.9151667 L6.05322727,23.9151667 L6.05322727,28.1858485 C8.76548485,33.5729015 14.3398485,37.2666667 20.7833333,37.2666667 L20.7833333,37.2666667 Z" id="Shape" fill="#34A853"></path>
                    <path d="M11.5601591,23.9151667 C11.2304924,22.9261667 11.0431818,21.8697348 11.0431818,20.7833333 C11.0431818,19.6969318 11.2304924,18.6405 11.5601591,17.6515 L11.5601591,13.3808182 L6.05322727,13.3808182 C4.93685606,15.6060682 4.3,18.1235227 4.3,20.7833333 C4.3,23.4431439 4.93685606,25.9605985 6.05322727,28.1858485 L11.5601591,23.9151667 L11.5601591,23.9151667 Z" id="Shape" fill="#FBBC05"></path>
                    <path d="M20.7833333,10.8558712 C23.2033864,10.8558712 25.3761894,11.6875303 27.0844621,13.3208788 L31.8121818,8.59315909 C28.9575682,5.93334848 25.2263409,4.3 20.7833333,4.3 C14.3398485,4.3 8.76548485,7.99376515 6.05322727,13.3808182 L11.5601591,17.6515 C12.8563485,13.7554394 16.4901742,10.8558712 20.7833333,10.8558712 L20.7833333,10.8558712 Z" id="Shape" fill="#EA4335"></path>
                    <path d="M0,0 L43,0 L43,43 L0,43 L0,0 Z" id="Shape"></path>
                </g>
            </g>
        </g>
    </g>
</svg>