<?xml version="1.0" encoding="utf-8"?>
<!-- Generator: Adobe Illustrator 15.0.0, SVG Export Plug-In  -->
<!DOCTYPE svg PUBLIC "-//W3C//DTD SVG 1.1//EN" "http://www.w3.org/Graphics/SVG/1.1/DTD/svg11.dtd" [
	<!ENTITY ns_flows "http://ns.adobe.com/Flows/1.0/">
]>
<svg version="1.1"
	 xmlns="http://www.w3.org/2000/svg" xmlns:xlink="http://www.w3.org/1999/xlink" xmlns:a="http://ns.adobe.com/AdobeSVGViewerExtensions/3.0/"
	 x="0px" y="0px" width="180px" height="73px" viewBox="0 0 180 73" enable-background="new 0 0 180 73" xml:space="preserve">
<defs>
</defs>
<g>
	<defs>
		<rect id="SVGID_1_" width="179.834" height="73.312"/>
	</defs>
	<clipPath id="SVGID_2_">
		<use xlink:href="#SVGID_1_"  overflow="visible"/>
	</clipPath>
	<path clip-path="url(#SVGID_2_)" fill="#FFFFFF" d="M83.178,9.8c0.145,0,0.307-0.01,0.485-0.03c0.179-0.02,0.352-0.045,0.522-0.075
		c0.169-0.03,0.326-0.065,0.471-0.105s0.255-0.08,0.333-0.12v2.063h-0.377v-0.372c0-0.191-0.065-0.353-0.196-0.487
		c-0.132-0.134-0.294-0.206-0.488-0.215h-2.589v8.253c0.019,0.21,0.101,0.389,0.246,0.537c0.144,0.148,0.328,0.222,0.55,0.222h0.304
		v0.373h-3.331v-0.373h0.304c0.203,0,0.378-0.071,0.529-0.214c0.149-0.144,0.229-0.321,0.238-0.531v-8.267h-2.575
		c-0.194,0.009-0.357,0.081-0.488,0.215c-0.13,0.134-0.195,0.296-0.195,0.487v0.372h-0.377V9.47c0.087,0.04,0.202,0.08,0.347,0.12
		s0.302,0.075,0.471,0.105c0.169,0.03,0.343,0.055,0.522,0.075c0.178,0.02,0.34,0.03,0.485,0.03H83.178z"/>
	<path clip-path="url(#SVGID_2_)" fill="#FFFFFF" d="M92.884,19.815v-0.373h0.305c0.213,0,0.393-0.073,0.543-0.222
		c0.149-0.148,0.229-0.322,0.238-0.523v-3.51h-5.548v3.496c0.019,0.21,0.102,0.389,0.246,0.537c0.145,0.149,0.328,0.222,0.551,0.222
		h0.305v0.373h-3.347v-0.373h0.304c0.222,0,0.405-0.073,0.55-0.222c0.145-0.148,0.227-0.327,0.247-0.537v-7.765
		c-0.02-0.21-0.102-0.392-0.247-0.545c-0.145-0.153-0.328-0.229-0.55-0.229h-0.304V9.771h3.347v0.373h-0.305
		c-0.223,0-0.406,0.076-0.551,0.229c-0.144,0.153-0.227,0.335-0.246,0.545v3.61h5.548v-3.61c-0.01-0.201-0.089-0.375-0.238-0.523
		c-0.15-0.148-0.33-0.223-0.543-0.223h-0.305V9.8h3.331v0.372h-0.289c-0.223,0-0.406,0.077-0.551,0.229
		c-0.144,0.153-0.226,0.335-0.246,0.545v7.751c0.021,0.211,0.103,0.39,0.246,0.538c0.145,0.148,0.328,0.222,0.551,0.222h0.289v0.372
		L92.884,19.815z"/>
	<path clip-path="url(#SVGID_2_)" fill="#FFFFFF" d="M103.863,19.858h-6.084v-0.373h0.306c0.221,0,0.404-0.073,0.55-0.222
		c0.145-0.148,0.227-0.331,0.246-0.551v-7.823c-0.02-0.192-0.104-0.354-0.253-0.488c-0.15-0.133-0.326-0.2-0.529-0.2h-0.304V9.828
		h4.258c0.145,0,0.307-0.009,0.485-0.028c0.18-0.019,0.353-0.043,0.521-0.072c0.169-0.029,0.326-0.062,0.471-0.1
		c0.146-0.038,0.256-0.077,0.333-0.115v2.063h-0.377v-0.372c0-0.191-0.063-0.353-0.195-0.487c-0.13-0.134-0.292-0.21-0.484-0.23
		h-2.753v4.084h2.26c0.164-0.009,0.302-0.069,0.413-0.179s0.167-0.246,0.167-0.409v-0.315h0.376v2.436h-0.376v-0.329
		c0-0.153-0.056-0.285-0.167-0.395c-0.111-0.109-0.239-0.169-0.384-0.179h-2.274v3.969h1.898c0.356,0,0.664-0.045,0.919-0.136
		c0.256-0.091,0.479-0.217,0.666-0.38c0.188-0.162,0.351-0.355,0.485-0.58c0.137-0.224,0.257-0.47,0.362-0.738h0.392L103.863,19.858
		z"/>
	<path clip-path="url(#SVGID_2_)" fill="#FFFFFF" d="M21.894,29.715c1.781,0.031,3.152,0.404,4.113,1.119
		c0.961,0.715,1.442,1.679,1.442,2.892c0,0.809-0.226,1.5-0.678,2.075s-0.979,1.018-1.58,1.329h-0.072
		c1.193,0.312,2.118,0.863,2.779,1.656c0.659,0.793,0.989,1.718,0.989,2.775c0,1.369-0.509,2.457-1.527,3.265
		c-1.019,0.81-2.491,1.212-4.417,1.212h-6.197v-0.605h0.848c0.267,0,0.484-0.12,0.649-0.361c0.165-0.24,0.263-0.531,0.294-0.873
		V31.555c0-0.341-0.09-0.632-0.271-0.873c-0.18-0.24-0.405-0.361-0.672-0.361h-0.825v-0.63h0.354L21.894,29.715z M22.333,36.967
		c0.283-0.047,0.558-0.136,0.825-0.268s0.511-0.318,0.731-0.559c0.22-0.242,0.397-0.545,0.531-0.91c0.133-0.365,0.2-0.813,0.2-1.341
		c0-0.979-0.236-1.729-0.707-2.25c-0.472-0.521-1.172-0.782-2.099-0.782H21.13v6.203c0.204,0,0.42-0.007,0.648-0.023
		C22.007,37.022,22.191,36.998,22.333,36.967 M22.859,44.872c0.995-0.029,1.777-0.338,2.345-0.921
		c0.569-0.583,0.853-1.418,0.853-2.507c0-0.591-0.091-1.099-0.273-1.527c-0.181-0.428-0.418-0.784-0.71-1.071
		c-0.292-0.288-0.624-0.518-0.995-0.689c-0.371-0.171-0.746-0.295-1.125-0.373c-0.269-0.03-0.526-0.058-0.77-0.081
		c-0.245-0.022-0.596-0.043-1.054-0.059v7.207L22.859,44.872z"/>
	<path clip-path="url(#SVGID_2_)" fill="#FFFFFF" d="M40.769,46.015H30.16V45.41h0.848c0.268,0,0.484-0.122,0.649-0.363
		c0.165-0.24,0.263-0.532,0.295-0.874V31.557c-0.032-0.342-0.13-0.634-0.295-0.875c-0.165-0.241-0.381-0.361-0.649-0.361H30.16
		v-0.607h6.177v0.607h-0.849c-0.267,0-0.484,0.12-0.648,0.361c-0.165,0.241-0.264,0.533-0.295,0.875v13.385h3.536
		c0.503,0,0.943-0.072,1.32-0.222c0.378-0.146,0.708-0.353,0.991-0.618c0.283-0.264,0.53-0.579,0.743-0.942
		c0.212-0.366,0.404-0.767,0.577-1.202h0.519L40.769,46.015z"/>
	<path clip-path="url(#SVGID_2_)" fill="#FFFFFF" d="M57.672,44.033c0.22,0.466,0.468,0.805,0.743,1.014
		c0.275,0.21,0.531,0.315,0.767,0.315h0.754v0.607h-6.295v-0.607h0.754c0.11,0,0.209-0.061,0.295-0.186
		c0.087-0.124,0.13-0.312,0.13-0.561c0-0.155-0.016-0.295-0.047-0.42c-0.236-0.606-0.48-1.232-0.731-1.877
		c-0.252-0.646-0.487-1.271-0.708-1.878h-5.257c-0.251,0.606-0.507,1.232-0.766,1.878c-0.259,0.645-0.507,1.271-0.743,1.877
		c-0.031,0.155-0.047,0.296-0.047,0.42c0,0.249,0.043,0.44,0.13,0.571c0.086,0.132,0.192,0.199,0.318,0.199h0.755v0.605h-5.729
		v-0.605h0.754c0.236,0,0.487-0.106,0.754-0.315c0.267-0.21,0.511-0.541,0.731-0.991l5.234-12.243
		c0.157-0.342,0.299-0.669,0.425-0.98c0.094-0.248,0.184-0.505,0.27-0.769c0.087-0.264,0.13-0.505,0.13-0.723h1.203L57.672,44.033z
		 M52.934,39.369c-0.205-0.528-0.393-1.021-0.566-1.479c-0.173-0.459-0.35-0.915-0.53-1.365c-0.181-0.45-0.358-0.909-0.531-1.376
		c-0.173-0.466-0.362-0.971-0.565-1.515l-2.264,5.736H52.934z"/>
	<path clip-path="url(#SVGID_2_)" fill="#FFFFFF" d="M75.308,42.727c-0.645,1.042-1.541,1.904-2.688,2.588
		c-1.147,0.685-2.585,1.026-4.314,1.026c-1.289,0-2.472-0.202-3.548-0.606c-1.077-0.403-2.002-0.979-2.776-1.726
		c-0.773-0.746-1.375-1.64-1.803-2.681c-0.429-1.041-0.643-2.207-0.643-3.498c0-1.26,0.21-2.41,0.63-3.452
		c0.422-1.041,1.019-1.935,1.792-2.682c0.774-0.746,1.707-1.321,2.8-1.725c1.092-0.404,2.314-0.606,3.666-0.606
		c1.241,0,2.345,0.155,3.312,0.466c0.967,0.311,1.812,0.699,2.535,1.166h0.165l0.495,3.521h-0.424
		c-0.174-0.668-0.468-1.259-0.885-1.772c-0.416-0.514-0.903-0.94-1.461-1.283c-0.559-0.341-1.16-0.598-1.804-0.769
		s-1.281-0.257-1.909-0.257c-0.944,0-1.788,0.175-2.535,0.525c-0.747,0.349-1.383,0.848-1.91,1.492
		c-0.527,0.646-0.931,1.423-1.214,2.332c-0.283,0.91-0.424,1.917-0.424,3.02c0,1.089,0.153,2.075,0.46,2.962
		c0.306,0.886,0.731,1.647,1.273,2.285s1.178,1.147,1.909,1.528c0.731,0.38,1.513,0.609,2.346,0.687
		c0.723-0.015,1.462-0.136,2.216-0.361c0.755-0.225,1.454-0.583,2.099-1.072c0.644-0.49,1.194-1.134,1.65-1.936
		c0.455-0.801,0.754-1.775,0.896-2.927h0.401L75.308,42.727z"/>
	<path clip-path="url(#SVGID_2_)" fill="#FFFFFF" d="M81.367,44.172c0.031,0.342,0.129,0.634,0.294,0.874
		c0.165,0.241,0.381,0.362,0.649,0.362h0.849v0.606h-6.177v-0.606h0.849c0.266,0,0.483-0.121,0.648-0.362
		c0.165-0.24,0.263-0.532,0.295-0.874V31.534c-0.032-0.342-0.13-0.637-0.295-0.886s-0.382-0.373-0.648-0.373h-0.849v-0.606h6.177
		v0.606H82.31c-0.268,0-0.484,0.124-0.649,0.373c-0.165,0.249-0.263,0.544-0.294,0.886v5.433c0.849-0.979,1.682-1.966,2.499-2.961
		c0.817-0.995,1.65-1.983,2.499-2.962h-0.023c0.046-0.062,0.07-0.171,0.07-0.327c0-0.294-0.063-0.442-0.189-0.442h-0.777v-0.583
		h5.964v0.583h-0.637c-0.393,0-0.771,0.093-1.132,0.279c-0.36,0.187-0.676,0.436-0.943,0.746l-5.611,6.064l6.507,7.205
		c0.55,0.544,1.194,0.824,1.935,0.84h0.353v0.606h-1.509c-0.173,0-0.421-0.012-0.743-0.034c-0.322-0.024-0.668-0.082-1.037-0.176
		c-0.37-0.094-0.743-0.229-1.12-0.407c-0.377-0.18-0.707-0.425-0.99-0.736l-5.116-5.805V44.172z"/>
	<path clip-path="url(#SVGID_2_)" fill="#FFFFFF" d="M103.679,29.715c1.78,0.031,3.152,0.404,4.112,1.119
		c0.962,0.715,1.442,1.679,1.442,2.892c0,0.809-0.226,1.5-0.678,2.075c-0.451,0.575-0.978,1.018-1.581,1.329h-0.071
		c1.192,0.312,2.118,0.863,2.778,1.656s0.99,1.718,0.99,2.775c0,1.369-0.509,2.457-1.527,3.265c-1.02,0.81-2.491,1.212-4.418,1.212
		H98.53v-0.605h0.849c0.267,0,0.483-0.12,0.648-0.361c0.165-0.24,0.264-0.531,0.295-0.873V31.555c0-0.341-0.091-0.632-0.271-0.873
		c-0.18-0.24-0.405-0.361-0.672-0.361h-0.825v-0.63h0.354L103.679,29.715z M104.118,36.967c0.282-0.047,0.557-0.136,0.824-0.268
		s0.512-0.318,0.731-0.559c0.22-0.242,0.396-0.545,0.531-0.91c0.133-0.365,0.199-0.813,0.199-1.341c0-0.979-0.235-1.729-0.707-2.25
		s-1.171-0.782-2.099-0.782h-0.683v6.203c0.204,0,0.42-0.007,0.647-0.023C103.791,37.022,103.976,36.998,104.118,36.967
		 M104.645,44.872c0.994-0.029,1.776-0.338,2.345-0.921c0.569-0.583,0.854-1.418,0.854-2.507c0-0.591-0.092-1.099-0.272-1.527
		c-0.182-0.428-0.419-0.784-0.711-1.071c-0.292-0.288-0.624-0.518-0.995-0.689c-0.37-0.171-0.745-0.295-1.125-0.373
		c-0.269-0.03-0.525-0.058-0.771-0.081c-0.244-0.022-0.595-0.043-1.053-0.059v7.207L104.645,44.872z"/>
	<path clip-path="url(#SVGID_2_)" fill="#FFFFFF" d="M120.655,29.365c1.303,0,2.496,0.202,3.579,0.606
		c1.083,0.404,2.013,0.979,2.79,1.725c0.777,0.747,1.382,1.641,1.813,2.682c0.434,1.042,0.648,2.2,0.648,3.475
		c0,1.274-0.215,2.435-0.648,3.476c-0.431,1.041-1.035,1.935-1.813,2.681s-1.707,1.321-2.79,1.726s-2.276,0.606-3.579,0.606
		c-1.302,0-2.495-0.202-3.578-0.606s-2.013-0.979-2.79-1.726s-1.382-1.64-1.813-2.681c-0.433-1.041-0.648-2.201-0.648-3.476
		c0-1.275,0.216-2.433,0.648-3.475c0.431-1.041,1.035-1.935,1.813-2.682c0.777-0.746,1.707-1.321,2.79-1.725
		C118.16,29.567,119.354,29.365,120.655,29.365 M120.668,45.268c0.896,0,1.713-0.178,2.451-0.536
		c0.739-0.357,1.371-0.858,1.899-1.504c0.525-0.645,0.93-1.423,1.213-2.332c0.284-0.908,0.425-1.924,0.425-3.043
		c0-1.12-0.141-2.134-0.425-3.042c-0.283-0.91-0.688-1.687-1.213-2.332c-0.528-0.646-1.16-1.147-1.899-1.504
		c-0.738-0.358-1.555-0.537-2.451-0.537c-0.896,0-1.71,0.179-2.439,0.537c-0.732,0.357-1.361,0.858-1.888,1.504
		c-0.526,0.645-0.931,1.422-1.214,2.332c-0.283,0.909-0.424,1.923-0.424,3.042c0,1.119,0.141,2.135,0.424,3.043
		c0.283,0.909,0.688,1.688,1.214,2.332c0.526,0.646,1.155,1.146,1.888,1.504C118.958,45.09,119.772,45.268,120.668,45.268"/>
	<path clip-path="url(#SVGID_2_)" fill="#FFFFFF" d="M139.682,29.365c1.303,0,2.496,0.202,3.578,0.606
		c1.083,0.404,2.014,0.979,2.79,1.725c0.777,0.747,1.382,1.641,1.813,2.682c0.433,1.042,0.647,2.2,0.647,3.475
		c0,1.274-0.215,2.435-0.647,3.476c-0.432,1.041-1.036,1.935-1.813,2.681c-0.776,0.746-1.707,1.321-2.79,1.726
		c-1.082,0.404-2.275,0.606-3.578,0.606c-1.302,0-2.496-0.202-3.579-0.606s-2.013-0.979-2.79-1.726s-1.382-1.64-1.812-2.681
		c-0.434-1.041-0.648-2.201-0.648-3.476c0-1.275,0.215-2.433,0.648-3.475c0.43-1.041,1.034-1.935,1.812-2.682
		c0.777-0.746,1.707-1.321,2.79-1.725C137.186,29.567,138.38,29.365,139.682,29.365 M139.693,45.268
		c0.896,0,1.713-0.178,2.451-0.536c0.739-0.357,1.372-0.858,1.899-1.504c0.525-0.645,0.931-1.423,1.213-2.332
		c0.284-0.908,0.425-1.924,0.425-3.043c0-1.12-0.141-2.134-0.425-3.042c-0.282-0.91-0.688-1.687-1.213-2.332
		c-0.527-0.646-1.16-1.147-1.899-1.504c-0.738-0.358-1.555-0.537-2.451-0.537c-0.896,0-1.71,0.179-2.439,0.537
		c-0.731,0.357-1.36,0.858-1.887,1.504c-0.526,0.645-0.932,1.422-1.214,2.332c-0.283,0.909-0.425,1.923-0.425,3.042
		c0,1.119,0.142,2.135,0.425,3.043c0.282,0.909,0.688,1.688,1.214,2.332c0.526,0.646,1.155,1.146,1.887,1.504
		C137.983,45.09,138.798,45.268,139.693,45.268"/>
	<path clip-path="url(#SVGID_2_)" fill="#FFFFFF" d="M154.074,44.172c0.031,0.342,0.13,0.634,0.295,0.874
		c0.165,0.241,0.381,0.362,0.648,0.362h0.849v0.606h-6.177v-0.606h0.849c0.267,0,0.483-0.121,0.648-0.362
		c0.165-0.24,0.263-0.532,0.295-0.874V31.534c-0.032-0.342-0.13-0.637-0.295-0.886s-0.382-0.373-0.648-0.373h-0.849v-0.606h6.177
		v0.606h-0.849c-0.268,0-0.483,0.124-0.648,0.373s-0.264,0.544-0.295,0.886v5.433c0.85-0.979,1.683-1.966,2.499-2.961
		c0.817-0.995,1.65-1.983,2.499-2.962h-0.022c0.046-0.062,0.07-0.171,0.07-0.327c0-0.294-0.063-0.442-0.189-0.442h-0.777v-0.583
		h5.965v0.583h-0.637c-0.393,0-0.771,0.093-1.132,0.279c-0.361,0.187-0.675,0.436-0.943,0.746l-5.609,6.064l6.507,7.205
		c0.549,0.544,1.193,0.824,1.932,0.84h0.355v0.606h-1.511c-0.173,0-0.42-0.012-0.741-0.034c-0.323-0.024-0.669-0.082-1.037-0.176
		c-0.371-0.094-0.744-0.229-1.121-0.407c-0.377-0.18-0.707-0.425-0.99-0.736l-5.116-5.805V44.172z"/>
	<path clip-path="url(#SVGID_2_)" fill="#FFFFFF" d="M55.261,59.61l-0.117,1.477c-0.121,0.195-0.262,0.377-0.425,0.54
		c-0.163,0.163-0.35,0.305-0.56,0.424c-0.211,0.12-0.446,0.213-0.705,0.281c-0.259,0.068-0.545,0.104-0.859,0.104
		c-0.469,0-0.903-0.078-1.301-0.232c-0.397-0.154-0.739-0.376-1.025-0.662c-0.286-0.285-0.509-0.628-0.669-1.027
		c-0.159-0.399-0.239-0.846-0.239-1.34c0-0.483,0.078-0.923,0.234-1.324c0.158-0.398,0.377-0.741,0.661-1.027
		c0.282-0.286,0.626-0.507,1.029-0.661c0.404-0.154,0.855-0.232,1.356-0.232c0.445,0,0.849,0.06,1.21,0.179
		c0.362,0.119,0.681,0.269,0.958,0.447L55,57.903h-0.217c-0.132-0.518-0.392-0.908-0.777-1.17c-0.385-0.263-0.837-0.394-1.355-0.394
		c-0.38,0-0.722,0.066-1.026,0.201c-0.304,0.134-0.563,0.325-0.777,0.572c-0.214,0.247-0.378,0.545-0.492,0.894
		c-0.115,0.349-0.172,0.734-0.172,1.157c0,0.424,0.06,0.808,0.181,1.153c0.12,0.345,0.287,0.643,0.501,0.889
		c0.214,0.248,0.469,0.441,0.764,0.581s0.62,0.22,0.976,0.237c0.301,0,0.589-0.042,0.863-0.126c0.273-0.083,0.519-0.219,0.736-0.406
		c0.217-0.188,0.399-0.437,0.547-0.746c0.147-0.31,0.248-0.688,0.302-1.136H55.261z"/>
	<path clip-path="url(#SVGID_2_)" fill="#FFFFFF" d="M61.627,55.928c0.481,0,0.92,0.077,1.317,0.232
		c0.396,0.154,0.738,0.375,1.024,0.661c0.286,0.286,0.508,0.629,0.668,1.027c0.159,0.401,0.239,0.844,0.239,1.332
		c0,0.489-0.08,0.933-0.239,1.332c-0.16,0.4-0.382,0.741-0.668,1.028c-0.286,0.285-0.628,0.506-1.024,0.661
		c-0.397,0.154-0.836,0.232-1.317,0.232c-0.482,0-0.921-0.078-1.318-0.232c-0.397-0.155-0.738-0.376-1.024-0.661
		c-0.286-0.287-0.508-0.628-0.668-1.028c-0.159-0.399-0.239-0.843-0.239-1.332c0-0.488,0.08-0.931,0.239-1.332
		c0.16-0.398,0.382-0.741,0.668-1.027s0.627-0.507,1.024-0.661C60.707,56.005,61.146,55.928,61.627,55.928 M61.632,62.024
		c0.367,0,0.7-0.067,0.999-0.206c0.297-0.137,0.552-0.329,0.763-0.576s0.375-0.545,0.492-0.894c0.118-0.348,0.177-0.738,0.177-1.167
		c0-0.428-0.059-0.817-0.177-1.166c-0.117-0.348-0.281-0.646-0.492-0.893c-0.211-0.247-0.466-0.44-0.763-0.577
		c-0.299-0.138-0.632-0.206-0.999-0.206c-0.361,0-0.691,0.068-0.989,0.206c-0.299,0.137-0.555,0.33-0.769,0.577
		c-0.214,0.246-0.378,0.545-0.492,0.893c-0.115,0.349-0.171,0.738-0.171,1.166c0,0.429,0.056,0.819,0.171,1.167
		c0.114,0.349,0.278,0.646,0.492,0.894s0.47,0.439,0.769,0.576C60.94,61.957,61.271,62.024,61.632,62.024"/>
	<path clip-path="url(#SVGID_2_)" fill="#FFFFFF" d="M74.471,56.062v0.232h-0.235c-0.12,0-0.226,0.045-0.316,0.134
		c-0.091,0.09-0.139,0.195-0.145,0.314v4.521c0,0.137,0.005,0.276,0.014,0.415c0.009,0.141,0.019,0.267,0.032,0.38
		c0.012,0.131,0.026,0.259,0.045,0.385h-0.199l-4.708-4.97v4.156c0.012,0.125,0.062,0.232,0.149,0.322
		c0.088,0.089,0.195,0.133,0.321,0.133h0.235v0.232h-1.97v-0.232h0.235c0.126,0,0.235-0.044,0.326-0.133
		c0.09-0.09,0.138-0.2,0.144-0.33v-4.54c0-0.15-0.005-0.294-0.013-0.435c-0.01-0.141-0.02-0.264-0.032-0.371l-0.045-0.357h0.207
		l4.708,4.969v-4.146c-0.012-0.125-0.062-0.233-0.149-0.323c-0.087-0.088-0.197-0.133-0.33-0.133h-0.234v-0.233L74.471,56.062z"/>
	<path clip-path="url(#SVGID_2_)" fill="#FFFFFF" d="M80.742,59.62c0.187,0.173,0.312,0.355,0.375,0.549
		c0.063,0.194,0.095,0.385,0.095,0.568c0,0.25-0.041,0.481-0.122,0.693c-0.081,0.211-0.196,0.391-0.343,0.541
		c-0.148,0.147-0.329,0.264-0.543,0.347c-0.213,0.084-0.453,0.126-0.718,0.126c-0.115,0-0.243-0.009-0.384-0.027
		c-0.142-0.018-0.284-0.048-0.429-0.089c-0.144-0.042-0.283-0.096-0.416-0.161s-0.244-0.146-0.334-0.24
		c-0.013-0.055-0.021-0.112-0.027-0.176c-0.007-0.063-0.009-0.126-0.009-0.191c0-0.144,0.014-0.3,0.041-0.474
		c0.027-0.173,0.064-0.337,0.112-0.491h0.217c-0.006,0.059-0.01,0.108-0.013,0.146c-0.003,0.039-0.005,0.073-0.005,0.104
		c0,0.363,0.107,0.65,0.321,0.862c0.214,0.211,0.483,0.317,0.809,0.317h0.072c0.151-0.007,0.295-0.036,0.434-0.09
		c0.138-0.054,0.257-0.127,0.357-0.224c0.099-0.095,0.179-0.208,0.239-0.339c0.06-0.132,0.09-0.279,0.09-0.446
		c0-0.316-0.108-0.567-0.325-0.752l-1.69-1.555c-0.18-0.173-0.31-0.362-0.388-0.567c-0.079-0.205-0.118-0.398-0.118-0.577
		c0-0.19,0.036-0.377,0.109-0.563c0.072-0.186,0.176-0.351,0.312-0.496c0.135-0.146,0.303-0.264,0.506-0.354
		c0.201-0.088,0.435-0.133,0.7-0.133c0.12,0,0.248,0.007,0.384,0.021c0.135,0.015,0.263,0.037,0.384,0.066h0.425v1.216h-0.235
		c0-0.28-0.091-0.499-0.272-0.657c-0.18-0.157-0.397-0.236-0.65-0.236c-0.151,0-0.288,0.025-0.411,0.076
		c-0.124,0.052-0.231,0.119-0.321,0.205c-0.09,0.087-0.16,0.187-0.208,0.295c-0.048,0.11-0.072,0.229-0.072,0.354
		c0,0.107,0.023,0.229,0.068,0.367c0.045,0.136,0.137,0.264,0.275,0.384L80.742,59.62z"/>
	<path clip-path="url(#SVGID_2_)" fill="#FFFFFF" d="M90.618,56.044v0.232h-0.217c-0.103,0-0.19,0.033-0.262,0.098
		c-0.072,0.066-0.115,0.149-0.126,0.251v3.449c0,0.353-0.061,0.674-0.178,0.966c-0.116,0.292-0.283,0.541-0.501,0.746
		c-0.217,0.206-0.476,0.365-0.777,0.479c-0.301,0.112-0.635,0.171-1.002,0.171c-0.38,0-0.723-0.059-1.03-0.171
		c-0.308-0.113-0.573-0.272-0.796-0.479c-0.223-0.205-0.394-0.451-0.515-0.737c-0.12-0.286-0.18-0.604-0.18-0.956v-3.449
		c-0.006-0.103-0.047-0.188-0.123-0.26c-0.075-0.07-0.164-0.107-0.266-0.107h-0.216v-0.232h1.933v0.232h-0.208
		c-0.102,0-0.191,0.033-0.266,0.098c-0.076,0.066-0.116,0.149-0.123,0.251v3.333c0,0.312,0.044,0.591,0.131,0.841
		c0.088,0.25,0.21,0.465,0.367,0.643c0.156,0.18,0.344,0.318,0.564,0.416c0.22,0.099,0.465,0.147,0.737,0.147
		c0.283,0,0.541-0.046,0.777-0.139c0.235-0.092,0.435-0.223,0.601-0.392c0.165-0.171,0.293-0.372,0.384-0.609
		c0.09-0.235,0.135-0.498,0.135-0.791v-3.44c-0.012-0.102-0.054-0.185-0.126-0.25c-0.071-0.065-0.159-0.099-0.262-0.099h-0.217
		v-0.232L90.618,56.044z"/>
	<path clip-path="url(#SVGID_2_)" fill="#FFFFFF" d="M98.091,60.754L97.53,62.31h-3.794v-0.233h0.188
		c0.14,0,0.253-0.046,0.343-0.137c0.092-0.094,0.142-0.205,0.154-0.335v-4.836c-0.013-0.132-0.063-0.243-0.154-0.335
		c-0.09-0.093-0.203-0.14-0.343-0.14h-0.188v-0.241h2.086v0.241h-0.189c-0.139,0-0.253,0.047-0.344,0.14
		c-0.09,0.092-0.141,0.203-0.153,0.335v5.13h1.192c0.223,0,0.414-0.028,0.575-0.084c0.158-0.059,0.297-0.137,0.415-0.238
		c0.117-0.101,0.218-0.221,0.302-0.362c0.085-0.14,0.16-0.293,0.226-0.46H98.091z"/>
	<path clip-path="url(#SVGID_2_)" fill="#FFFFFF" d="M104.993,56.053c0.091,0,0.191-0.006,0.305-0.019
		c0.109-0.013,0.218-0.028,0.323-0.046c0.105-0.02,0.204-0.04,0.294-0.066c0.092-0.024,0.16-0.05,0.208-0.074v1.287h-0.234v-0.231
		c0-0.12-0.041-0.222-0.123-0.306c-0.082-0.083-0.184-0.128-0.304-0.134h-1.615v5.149c0.012,0.13,0.063,0.241,0.153,0.335
		c0.091,0.091,0.204,0.137,0.344,0.137h0.188v0.233h-2.077v-0.233h0.189c0.126,0,0.237-0.044,0.33-0.134
		c0.093-0.088,0.143-0.199,0.148-0.33v-5.157h-1.606c-0.121,0.006-0.223,0.051-0.303,0.134c-0.082,0.084-0.123,0.186-0.123,0.306
		v0.231h-0.235v-1.287c0.054,0.024,0.126,0.05,0.217,0.074c0.09,0.026,0.188,0.047,0.293,0.066c0.107,0.018,0.215,0.033,0.326,0.046
		c0.112,0.013,0.212,0.019,0.302,0.019H104.993z"/>
	<path clip-path="url(#SVGID_2_)" fill="#FFFFFF" d="M113.577,61.559V61.55c0.085,0.186,0.193,0.316,0.326,0.394
		c0.132,0.077,0.258,0.115,0.38,0.115h0.152v0.232h-2.142v-0.232h0.155c0.077,0,0.146-0.023,0.207-0.07
		c0.06-0.049,0.09-0.12,0.09-0.216c0-0.054-0.008-0.107-0.027-0.159l-0.551-1.44h-2.269l-0.577,1.448v-0.008
		c-0.019,0.064-0.028,0.118-0.028,0.159c0,0.096,0.032,0.17,0.096,0.22c0.063,0.05,0.134,0.076,0.212,0.076h0.153V62.3h-1.925
		v-0.231h0.155c0.119,0,0.246-0.038,0.38-0.117c0.131-0.077,0.239-0.205,0.323-0.383h-0.009l2.007-4.693
		c0.06-0.131,0.113-0.256,0.162-0.375c0.042-0.102,0.08-0.206,0.112-0.313c0.033-0.106,0.05-0.193,0.05-0.259h0.199L113.577,61.559z
		 M112.014,59.762l-0.957-2.521l-1.003,2.521H112.014z"/>
	<path clip-path="url(#SVGID_2_)" fill="#FFFFFF" d="M123.562,56.062v0.232h-0.233c-0.121,0-0.228,0.045-0.317,0.134
		c-0.091,0.09-0.138,0.195-0.145,0.314v4.521c0,0.137,0.005,0.276,0.014,0.415c0.009,0.141,0.02,0.267,0.032,0.38
		c0.012,0.131,0.026,0.259,0.046,0.385h-0.2l-4.708-4.97v4.156c0.012,0.125,0.062,0.232,0.149,0.322
		c0.088,0.089,0.194,0.133,0.32,0.133h0.235v0.232h-1.969v-0.232h0.233c0.127,0,0.235-0.044,0.326-0.133
		c0.09-0.09,0.138-0.2,0.144-0.33v-4.54c0-0.15-0.004-0.294-0.013-0.435c-0.01-0.141-0.019-0.264-0.032-0.371l-0.045-0.357h0.208
		l4.707,4.969v-4.146c-0.012-0.125-0.062-0.233-0.148-0.323c-0.087-0.088-0.197-0.133-0.33-0.133h-0.234v-0.233L123.562,56.062z"/>
	<path clip-path="url(#SVGID_2_)" fill="#FFFFFF" d="M130.845,56.053c0.09,0,0.19-0.006,0.303-0.019
		c0.111-0.013,0.22-0.028,0.325-0.046c0.105-0.02,0.203-0.04,0.293-0.066c0.091-0.024,0.16-0.05,0.208-0.074v1.287h-0.234v-0.231
		c0-0.12-0.04-0.222-0.123-0.306c-0.082-0.083-0.184-0.128-0.304-0.134h-1.615v5.149c0.012,0.13,0.063,0.241,0.153,0.335
		c0.091,0.091,0.204,0.137,0.344,0.137h0.189v0.233h-2.078v-0.233h0.189c0.126,0,0.236-0.044,0.33-0.134
		c0.093-0.088,0.143-0.199,0.148-0.33v-5.157h-1.606c-0.121,0.006-0.223,0.051-0.304,0.134c-0.082,0.084-0.122,0.186-0.122,0.306
		v0.231h-0.235v-1.287c0.055,0.024,0.126,0.05,0.217,0.074c0.09,0.026,0.189,0.047,0.294,0.066c0.106,0.018,0.214,0.033,0.325,0.046
		c0.112,0.013,0.212,0.019,0.303,0.019H130.845z"/>
</g>
</svg>
